<?xml version="1.0" encoding="UTF-8"?>
<svg version="1.1" xmlns="http://www.w3.org/2000/svg" width="500" height="500">
<path d="M0 0 C9.74372497 7.43433561 17.18149544 17.07908645 19.40234375 29.34765625 C21.04769365 43.56979031 18.17328535 56.16218187 9.6875 67.8125 C8.4963397 69.14060498 7.28806614 70.45357672 6.0625 71.75 C0.84382155 77.4305084 -0.83017263 84.40086316 -2.3125 91.8125 C-9.5725 91.8125 -16.8325 91.8125 -24.3125 91.8125 C-24.374375 88.80125 -24.43625 85.79 -24.5 82.6875 C-24.54096802 81.28153564 -24.54096802 81.28153564 -24.58276367 79.84716797 C-24.63353403 74.72100004 -24.10757725 71.28755807 -21.3125 66.8125 C-20.178125 67.039375 -19.04375 67.26625 -17.875 67.5 C-12.08790463 68.18625733 -7.20246053 66.92605322 -2.48046875 63.47265625 C2.49592211 58.5204814 3.04411357 52.56805747 3.6875 45.8125 C-3.18970933 44.37144932 -8.28147781 44.17450905 -14.51953125 47.61328125 C-20.83341469 51.83629261 -22.01560039 58.18661927 -23.4375 65.1875 C-23.73296123 66.72844394 -24.02592606 68.26987855 -24.3125 69.8125 C-25.6325 69.8125 -26.9525 69.8125 -28.3125 69.8125 C-28.48265625 69.16023438 -28.6528125 68.50796875 -28.828125 67.8359375 C-31.12447537 59.07079879 -31.12447537 59.07079879 -37.13671875 52.59765625 C-44.33569719 48.74448874 -49.629285 48.54175225 -57.3125 50.8125 C-58.64445716 51.1512905 -59.97743976 51.48615194 -61.3125 51.8125 C-58.5498886 62.61165281 -58.5498886 62.61165281 -50.75 70.125 C-45.81113652 72.54953298 -41.77825284 73.28405515 -36.3125 72.8125 C-34.6380761 72.1655635 -32.96947379 71.50290574 -31.3125 70.8125 C-27.82862903 71.29637097 -27.82862903 71.29637097 -26.3125 72.8125 C-26.22598389 74.22820123 -26.20545096 75.648095 -26.21484375 77.06640625 C-26.21734131 77.8354126 -26.21983887 78.60441895 -26.22241211 79.39672852 C-26.23151611 80.37955811 -26.24062012 81.3623877 -26.25 82.375 C-26.270625 85.489375 -26.29125 88.60375 -26.3125 91.8125 C-33.9025 91.8125 -41.4925 91.8125 -49.3125 91.8125 C-49.9725 88.5125 -50.6325 85.2125 -51.3125 81.8125 C-53.42207014 76.49638325 -56.04338282 72.84696301 -59.75 68.5 C-70.21790971 56.11785968 -71.43424873 43.42055688 -70.3125 27.8125 C-68.30008161 16.73778988 -60.82928243 6.83311999 -51.81640625 0.3125 C-35.550016 -9.4321082 -16.20996048 -10.62543141 0 0 Z M-38.3125 4.8125 C-47.12656682 8.50128451 -52.38046312 12.95631391 -57.3125 21.125 C-58.64743024 23.85306497 -58.64743024 23.85306497 -57.3125 26.8125 C-56.93738281 26.14863281 -56.56226562 25.48476562 -56.17578125 24.80078125 C-51.12854974 16.09208205 -46.24197556 11.38423585 -37.3125 6.8125 C-37.6425 6.1525 -37.9725 5.4925 -38.3125 4.8125 Z " fill="#0249AB" transform="translate(171.3125,189.1875)"/>
<path d="M0 0 C17.16 0 34.32 0 52 0 C52 6.27 52 12.54 52 19 C34.84 19 17.68 19 0 19 C0 12.73 0 6.46 0 0 Z " fill="#0249AA" transform="translate(120,283)"/>
<path d="M0 0 C0.598125 -0.309375 1.19625 -0.61875 1.8125 -0.9375 C4.79326841 -2.3853018 6.71249846 -2.39450018 10 -2 C15.57894737 1.15789474 15.57894737 1.15789474 17 4 C17.08400529 5.59447464 17.10727467 7.19240545 17.09765625 8.7890625 C17.09443359 9.73007812 17.09121094 10.67109375 17.08789062 11.640625 C17.07532227 13.11789062 17.07532227 13.11789062 17.0625 14.625 C17.05798828 15.61757813 17.05347656 16.61015625 17.04882812 17.6328125 C17.03702145 20.0886016 17.020554 22.54427104 17 25 C14.36 25 11.72 25 9 25 C8.67 19.06 8.34 13.12 8 7 C6.35 7 4.7 7 3 7 C2.67 12.94 2.34 18.88 2 25 C-0.64 25 -3.28 25 -6 25 C-6.33 19.06 -6.66 13.12 -7 7 C-8.65 7.33 -10.3 7.66 -12 8 C-12.33 13.61 -12.66 19.22 -13 25 C-15.97 25 -18.94 25 -22 25 C-22 16.42 -22 7.84 -22 -1 C-19.03 -1 -16.06 -1 -13 -1 C-8.46089183 -2.51303606 -4.47150576 -1.49050192 0 0 Z " fill="#0549A6" transform="translate(376,265)"/>
<path d="M0 0 C4.29 0 8.58 0 13 0 C16.04809836 7.41429332 18.7321643 14.89054101 21.25 22.5 C21.61351562 23.5828125 21.97703125 24.665625 22.3515625 25.78125 C22.69445312 26.8125 23.03734375 27.84375 23.390625 28.90625 C23.70032227 29.83759766 24.01001953 30.76894531 24.32910156 31.72851562 C25 34 25 34 25 36 C21.7 36 18.4 36 15 36 C14.34 33.69 13.68 31.38 13 29 C8.71 29 4.42 29 0 29 C-0.33 30.98 -0.66 32.96 -1 35 C-1.495 35.495 -1.495 35.495 -2 36 C-5.3 36 -8.6 36 -12 36 C-8.04 24.12 -4.08 12.24 0 0 Z M6 10 C4.515 15.445 4.515 15.445 3 21 C5.31 21 7.62 21 10 21 C9.71758359 19.53984709 9.42373386 18.08190207 9.125 16.625 C8.88136719 15.40683594 8.88136719 15.40683594 8.6328125 14.1640625 C8.13341068 11.81326077 8.13341068 11.81326077 6 10 Z " fill="#0449A9" transform="translate(212,254)"/>
<path d="M0 0 C4.29 0 8.58 0 13 0 C16.04809836 7.41429332 18.7321643 14.89054101 21.25 22.5 C21.61351562 23.5828125 21.97703125 24.665625 22.3515625 25.78125 C22.69445312 26.8125 23.03734375 27.84375 23.390625 28.90625 C23.70032227 29.83759766 24.01001953 30.76894531 24.32910156 31.72851562 C25 34 25 34 25 36 C21.7 36 18.4 36 15 36 C14.34 33.69 13.68 31.38 13 29 C8.71 29 4.42 29 0 29 C-0.33 30.98 -0.66 32.96 -1 35 C-1.495 35.495 -1.495 35.495 -2 36 C-5.3 36 -8.6 36 -12 36 C-8.04 24.12 -4.08 12.24 0 0 Z M6 10 C4.515 15.445 4.515 15.445 3 21 C5.31 21 7.62 21 10 21 C9.71758359 19.53984709 9.42373386 18.08190207 9.125 16.625 C8.88136719 15.40683594 8.88136719 15.40683594 8.6328125 14.1640625 C8.13341068 11.81326077 8.13341068 11.81326077 6 10 Z " fill="#0349AB" transform="translate(212,209)"/>
<path d="M0 0 C2.97 0 5.94 0 9 0 C9 11.88 9 23.76 9 36 C6.03 36 3.06 36 0 36 C-1.485 36.495 -1.485 36.495 -3 37 C-8.01103128 37.3711875 -10.99128499 37.11788946 -15 34 C-18.53611967 29.95872038 -19.30951547 26.43109299 -19.2109375 21.05859375 C-18.72618767 16.32779449 -16.77336351 13.66790485 -13.25 10.625 C-9.50429983 8.75214991 -7.13577752 8.60232908 -3 9 C-2.34 9.33 -1.68 9.66 -1 10 C-0.67 6.7 -0.34 3.4 0 0 Z M-8.125 18.125 C-10.29351795 19.91997726 -10.29351795 19.91997726 -10.4375 23 C-10.20938958 25.94396866 -10.20938958 25.94396866 -8.8125 27.9375 C-6.97979862 29.24211502 -6.97979862 29.24211502 -4.4375 28.8125 C-1.85558728 28.15372967 -1.85558728 28.15372967 0 26 C0.50010524 23.04230823 0.50010524 23.04230823 0 20 C-2.82672086 17.17327914 -4.47090943 16.19048146 -8.125 18.125 Z " fill="#0648A6" transform="translate(312,254)"/>
<path d="M0 0 C2.97 0 5.94 0 9 0 C9.33 5.94 9.66 11.88 10 18 C10.78375 16.68 11.5675 15.36 12.375 14 C14.37272317 11.27233952 15.26916794 10.14790649 18.625 9.46875 C21.12583471 9.49716858 23.52497508 9.64782254 26 10 C24.59023295 13.03852705 22.91129772 15.5939595 20.875 18.25 C20.33617187 18.95640625 19.79734375 19.6628125 19.2421875 20.390625 C18.83226562 20.92171875 18.42234375 21.4528125 18 22 C19.48445114 25.27628862 21.37609285 27.88793452 23.625 30.6875 C27 34.89591837 27 34.89591837 27 36 C23.22291525 36.48389698 19.75726104 36.70094307 16 36 C13.32057455 33.69032513 11.64638565 31.11215514 10 28 C9.67 30.64 9.34 33.28 9 36 C6.03 36 3.06 36 0 36 C0 24.12 0 12.24 0 0 Z " fill="#09489A" transform="translate(238,209)"/>
<path d="M0 0 C2.97 0 5.94 0 9 0 C9.83764268 1.95649397 10.66999059 3.91525556 11.5 5.875 C11.9640625 6.96554687 12.428125 8.05609375 12.90625 9.1796875 C14 12 14 12 14 14 C14.66 14 15.32 14 16 14 C16.12117188 13.40832031 16.24234375 12.81664062 16.3671875 12.20703125 C17.26744643 7.96196415 18.20456621 3.97560339 20 0 C22.97 0 25.94 0 29 0 C27.5587161 7.4323505 25.23602975 14.30029609 22.5625 21.375 C22.16740234 22.45394531 21.77230469 23.53289062 21.36523438 24.64453125 C20.97787109 25.67707031 20.59050781 26.70960938 20.19140625 27.7734375 C19.66848999 29.17215088 19.66848999 29.17215088 19.13500977 30.59912109 C17.99999145 33.00001809 17.06410081 34.35482943 15 36 C12.11788698 36.96070434 10.30149956 37.10581883 7.3125 37.0625 C6.10013672 37.04896484 6.10013672 37.04896484 4.86328125 37.03515625 C4.24839844 37.02355469 3.63351562 37.01195312 3 37 C3 34.36 3 31.72 3 29 C4.98 28.67 6.96 28.34 9 28 C8.38081787 24.47872105 7.45735761 21.31439349 6.15234375 17.98828125 C5.79462891 17.06595703 5.43691406 16.14363281 5.06835938 15.19335938 C4.69517578 14.24267578 4.32199219 13.29199219 3.9375 12.3125 C3.19359095 10.41394239 2.4525552 8.51425561 1.71484375 6.61328125 C1.38605225 5.77579346 1.05726074 4.93830566 0.71850586 4.07543945 C0 2 0 2 0 0 Z " fill="#0749A4" transform="translate(394,264)"/>
<path d="M0 0 C3.72021185 2.28285727 5.36171208 3.52263623 6.75 7.6875 C6.75 10.3275 6.75 12.9675 6.75 15.6875 C0.81 15.6875 -5.13 15.6875 -11.25 15.6875 C-10.26 16.6775 -9.27 17.6675 -8.25 18.6875 C-6.02888613 18.37890522 -6.02888613 18.37890522 -3.25 17.6875 C0.08483037 17.58520459 3.4144432 17.62920872 6.75 17.6875 C5.31270492 21.28073771 4.27145831 23.32369187 1.0625 25.5625 C-4.20532008 27.35157097 -8.23846987 27.38379889 -13.5 25.5625 C-16.95383685 23.20761124 -18.4543281 21.48603672 -20.25 17.6875 C-21.04997224 12.66726607 -20.80656488 8.86484879 -18.625 4.25 C-13.2887751 -1.50750581 -7.33356389 -2.96163157 0 0 Z M-11.25 7.6875 C-11.25 8.3475 -11.25 9.0075 -11.25 9.6875 C-8.28 9.6875 -5.31 9.6875 -2.25 9.6875 C-2.58 8.6975 -2.91 7.7075 -3.25 6.6875 C-7.42810069 5.49818813 -7.42810069 5.49818813 -11.25 7.6875 Z " fill="#0848A1" transform="translate(344.25,264.3125)"/>
<path d="M0 0 C3.22499869 2.12556732 4.17601349 3.28823866 5.75 6.8125 C6.10531649 10.09349983 6.03333112 13.3298839 5.9375 16.625 C5.91719727 17.95047852 5.91719727 17.95047852 5.89648438 19.30273438 C5.86129217 21.47292023 5.80748985 23.64279033 5.75 25.8125 C5.13511719 25.80089844 4.52023437 25.78929687 3.88671875 25.77734375 C2.67435547 25.76380859 2.67435547 25.76380859 1.4375 25.75 C0.63699219 25.73839844 -0.16351563 25.72679687 -0.98828125 25.71484375 C-3.41861334 25.71592145 -3.41861334 25.71592145 -6.25 26.8125 C-11.24942891 27.18282807 -14.22242055 26.8924137 -18.25 23.8125 C-19.81935594 20.67378812 -19.60201103 18.27394178 -19.25 14.8125 C-17.4375 11.875 -17.4375 11.875 -14.25 9.8125 C-10.54441128 9.40655067 -6.9611278 9.52002933 -3.25 9.8125 C-3.91 8.8225 -4.57 7.8325 -5.25 6.8125 C-8.00641416 7.31006092 -8.00641416 7.31006092 -10.25 8.8125 C-12.58297433 8.85342937 -14.91705225 8.85491723 -17.25 8.8125 C-17.58 7.8225 -17.91 6.8325 -18.25 5.8125 C-13.25102846 -1.13051603 -8.27359479 -3.02304425 0 0 Z M-10.25 15.8125 C-10.25 17.1325 -10.25 18.4525 -10.25 19.8125 C-8.6 19.8125 -6.95 19.8125 -5.25 19.8125 C-4.59 18.4925 -3.93 17.1725 -3.25 15.8125 C-5.56 15.8125 -7.87 15.8125 -10.25 15.8125 Z " fill="#0649A5" transform="translate(308.25,219.1875)"/>
<path d="M0 0 C4.75014447 2.62919519 4.75014447 2.62919519 6.0234375 5.17578125 C6.10744279 6.77025589 6.13071217 8.3681867 6.12109375 9.96484375 C6.11787109 10.90585937 6.11464844 11.846875 6.11132812 12.81640625 C6.10294922 13.80125 6.09457031 14.78609375 6.0859375 15.80078125 C6.08142578 16.79335938 6.07691406 17.7859375 6.07226562 18.80859375 C6.06045895 21.26438285 6.0439915 23.72005229 6.0234375 26.17578125 C5.39695312 26.16417969 4.77046875 26.15257812 4.125 26.140625 C2.89910156 26.12708984 2.89910156 26.12708984 1.6484375 26.11328125 C0.43027344 26.09587891 0.43027344 26.09587891 -0.8125 26.078125 C-3.02593392 26.03111791 -3.02593392 26.03111791 -4.9765625 27.17578125 C-10.00151076 27.55502263 -12.89157807 27.17944627 -16.9765625 24.17578125 C-18.54574742 22.60659633 -18.25915193 21.03492966 -18.3515625 18.86328125 C-18.28188187 15.49717096 -18.16271332 14.43896 -16.1640625 11.61328125 C-11.46921706 9.49599801 -7.04710359 9.8560974 -1.9765625 10.17578125 C-2.6365625 9.18578125 -3.2965625 8.19578125 -3.9765625 7.17578125 C-6.73297666 7.67334217 -6.73297666 7.67334217 -8.9765625 9.17578125 C-11.64715101 9.31693286 -14.30088488 9.21825232 -16.9765625 9.17578125 C-16.48709735 3.66929827 -16.48709735 3.66929827 -14.1015625 1.36328125 C-9.62808187 -1.13660499 -4.86270785 -2.02772995 0 0 Z M-8.9765625 16.17578125 C-8.9765625 17.49578125 -8.9765625 18.81578125 -8.9765625 20.17578125 C-6.9965625 19.84578125 -5.0165625 19.51578125 -2.9765625 19.17578125 C-2.6465625 18.18578125 -2.3165625 17.19578125 -1.9765625 16.17578125 C-4.2865625 16.17578125 -6.5965625 16.17578125 -8.9765625 16.17578125 Z " fill="#0849A2" transform="translate(283.9765625,263.82421875)"/>
<path d="M0 0 C2.22695302 1.78156242 3.78764099 3.26136177 5.1875 5.75 C4.8575 6.74 4.5275 7.73 4.1875 8.75 C0.8125 8.875 0.8125 8.875 -2.8125 8.75 C-3.4725 8.09 -4.1325 7.43 -4.8125 6.75 C-6.1325 6.75 -7.4525 6.75 -8.8125 6.75 C-9.1425 7.41 -9.4725 8.07 -9.8125 8.75 C-9.22082031 8.78738281 -8.62914062 8.82476562 -8.01953125 8.86328125 C-2.81508172 9.29627787 1.31928923 9.88178923 5.1875 13.75 C5.77813136 20.95570265 5.77813136 20.95570265 3.375 24.1875 C-1.02406518 27.32968941 -5.6056545 27.25646791 -10.8125 26.75 C-14.87912662 25.19728802 -16.38769602 24.38720598 -18.8125 20.75 C-18.4375 18.5625 -18.4375 18.5625 -17.8125 16.75 C-14.4375 16.625 -14.4375 16.625 -10.8125 16.75 C-10.1525 17.41 -9.4925 18.07 -8.8125 18.75 C-6.22895782 18.91687448 -6.22895782 18.91687448 -3.8125 18.75 C-6.52287439 16.94308374 -8.25762818 16.24054702 -11.3125 15.375 C-14.04599431 14.47570708 -15.69772556 13.84452013 -17.9375 12 C-19.26825391 8.57806138 -18.7659329 6.24592063 -17.8125 2.75 C-13.03567523 -2.02682477 -6.01757229 -2.67447657 0 0 Z " fill="#0A479B" transform="translate(281.8125,219.25)"/>
<path d="M0 0 C3.3349601 2.22330673 4.91207262 4.36651868 6.8125 7.875 C6.8125 8.865 6.8125 9.855 6.8125 10.875 C1.29438956 11.15090552 -0.78427738 11.21537578 -5.1875 7.875 C-7.92148135 8.58457237 -7.92148135 8.58457237 -10.1875 9.875 C-10.1875 12.185 -10.1875 14.495 -10.1875 16.875 C-7.33671909 17.64216851 -7.33671909 17.64216851 -4.1875 17.875 C-3.73375 17.400625 -3.28 16.92625 -2.8125 16.4375 C-0.73504739 14.43994941 0.17787174 14.66773027 3 14.6875 C4.258125 14.749375 5.51625 14.81125 6.8125 14.875 C6.53551826 18.84507156 6.04565777 20.59889212 3.4375 23.6875 C-0.31727392 26.81647827 -3.29245218 27.17467978 -8.12890625 27.0859375 C-12.76553961 26.61083655 -15.4617707 24.65802372 -18.5625 21.3125 C-20.74406488 16.69765121 -20.98747224 12.89523393 -20.1875 7.875 C-18.37516463 4.04121364 -16.88723473 2.34148982 -13.375 0 C-8.48257542 -1.72673809 -4.89242458 -1.72673809 0 0 Z " fill="#0848A1" transform="translate(257.1875,264.125)"/>
<path d="M0 0 C11.22 0 22.44 0 34 0 C34 10.30769231 34 10.30769231 31 14 C26.90991341 16.0450433 21.62009227 15.18488961 17.125 15.1875 C15.47177734 15.20586914 15.47177734 15.20586914 13.78515625 15.22460938 C12.19380859 15.22750977 12.19380859 15.22750977 10.5703125 15.23046875 C9.59852051 15.23457764 8.62672852 15.23868652 7.62548828 15.24291992 C4.90089941 14.99083085 3.28524317 14.48042882 1 13 C0 11 0 11 0 0 Z " fill="#0149AC" transform="translate(129,304)"/>
<path d="M0 0 C4.89393009 3.68847784 6.55197557 7.98168101 7.91796875 13.8359375 C4.12747168 12.40843769 0.64674419 10.67357208 -2.89453125 8.7109375 C-3.87035156 8.17210937 -4.84617188 7.63328125 -5.8515625 7.078125 C-6.58761719 6.66820312 -7.32367188 6.25828125 -8.08203125 5.8359375 C-4.33765061 8.7598711 -0.33754876 11.06812142 3.7734375 13.43359375 C5.91796875 14.8359375 5.91796875 14.8359375 6.91796875 16.8359375 C1.27068562 19.65957906 -3.81260525 19.50111409 -9.70703125 17.7734375 C-14.70709559 14.90303019 -17.84019119 11.26317034 -20.45703125 6.1484375 C-21.08203125 3.8359375 -21.08203125 3.8359375 -21.08203125 -0.1640625 C-13.65474555 -3.50095897 -7.29928355 -4.08102533 0 0 Z " fill="#0846A0" transform="translate(133.08203125,242.1640625)"/>
<path d="M0 0 C0.43013546 6.1294303 -0.04265129 10.15777828 -4 15 C-8.55935595 18.9376256 -12.15747868 19.71266289 -18 20 C-18.99 19.67 -19.98 19.34 -21 19 C-19.54144353 15.31353859 -17.69770955 13.83856029 -14.375 11.75 C-13.55773437 11.22921875 -12.74046875 10.7084375 -11.8984375 10.171875 C-11.27195313 9.78515625 -10.64546875 9.3984375 -10 9 C-13.47132534 10.63626349 -16.36294859 12.67157252 -19.4140625 14.9765625 C-21 16 -21 16 -23 16 C-22.10171882 9.84610354 -21.13837856 5.97056525 -16 2 C-10.663912 -1.36405548 -6.02122414 -2.00707471 0 0 Z " fill="#0648A2" transform="translate(173,236)"/>
<path d="M0 0 C4.29 0 8.58 0 13 0 C15.90405696 6.90965277 18.17604991 13.73183525 20 21 C19.01 21.33 18.02 21.66 17 22 C13.78137652 15.77732794 13.78137652 15.77732794 14.5625 13 C14.706875 12.34 14.85125 11.68 15 11 C14.34 10.01 13.68 9.02 13 8 C12.60986284 6.0103005 12.26797351 4.00980131 12 2 C6.555 1.505 6.555 1.505 1 1 C1.66 2.32 2.32 3.64 3 5 C3.33 5.66 3.66 6.32 4 7 C5.65 6.34 7.3 5.68 9 5 C9.12375 5.639375 9.2475 6.27875 9.375 6.9375 C9.58125 7.618125 9.7875 8.29875 10 9 C10.66 9.33 11.32 9.66 12 10 C11.37240135 12.92879371 10.41377341 15.36095629 9 18 C8.34 16.02 7.68 14.04 7 12 C5.68 14.97 4.36 17.94 3 21 C5.31 21 7.62 21 10 21 C10 21.33 10 21.66 10 22 C6.04 22.495 6.04 22.495 2 23 C2 22.34 2 21.68 2 21 C1.34 21 0.68 21 0 21 C0 20.34 0 19.68 0 19 C-2.3657358 19.94629432 -3.73981398 20.61656797 -5.1875 22.75 C-6.17064468 25.47255451 -6.60960064 28.13707134 -7 31 C-7.33 31 -7.66 31 -8 31 C-8.495 33.475 -8.495 33.475 -9 36 C-9.99 35.67 -10.98 35.34 -12 35 C-8.04 23.45 -4.08 11.9 0 0 Z " fill="#0B499E" transform="translate(212,209)"/>
<path d="M0 0 C1.98 0 3.96 0 6 0 C6 6.27 6 12.54 6 19 C6.66 19 7.32 19 8 19 C8 20.32 8 21.64 8 23 C7.01 23 6.02 23 5 23 C4.80508548 24.45736087 4.61930642 25.91594593 4.4375 27.375 C4.28087891 28.59316406 4.28087891 28.59316406 4.12109375 29.8359375 C3.81762672 32.04899186 3.81762672 32.04899186 5 34 C3.33388095 34.042721 1.66617115 34.04063832 0 34 C-1.67673649 32.32326351 -1.12787817 30.27144924 -1.13894653 28.03344727 C-1.1369223 27.34178467 -1.13489807 26.65012207 -1.1328125 25.9375 C-1.13376923 25.23101318 -1.13472595 24.52452637 -1.13571167 23.79663086 C-1.13639333 22.30029207 -1.13454005 20.80395033 -1.13037109 19.30761719 C-1.12502257 17.00969843 -1.13031651 14.71197514 -1.13671875 12.4140625 C-1.13605797 10.96354123 -1.1347768 9.51302009 -1.1328125 8.0625 C-1.13483673 7.3708374 -1.13686096 6.6791748 -1.13894653 5.96655273 C-1.11495224 1.11495224 -1.11495224 1.11495224 0 0 Z " fill="#0249AC" transform="translate(240,211)"/>
<path d="M0 0 C0 0.66 0 1.32 0 2 C-0.99 2.66 -1.98 3.32 -3 4 C-3.73343428 7.06556598 -3.73343428 7.06556598 -4 10 C-2.01508358 9.73323796 -2.01508358 9.73323796 0 9 C0.33 8.01 0.66 7.02 1 6 C2.98 6 4.96 6 7 6 C6.67 5.01 6.34 4.02 6 3 C8.97 3.495 8.97 3.495 12 4 C11.34 4.66 10.68 5.32 10 6 C10 6.99 10 7.98 10 9 C9.01 8.67 8.02 8.34 7 8 C-1.49960832 10.80882065 -6.67187798 15.73177629 -10.875 23.4375 C-11.24625 24.283125 -11.6175 25.12875 -12 26 C-13.15941038 22.52176885 -12.70820884 20.54104422 -12 17 C-11.34 17 -10.68 17 -10 17 C-10.061875 15.88625 -10.061875 15.88625 -10.125 14.75 C-9.99601866 11.91241048 -9.42948778 10.41226062 -8 8 C-7.34 8 -6.68 8 -6 8 C-6.33 7.34 -6.66 6.68 -7 6 C-8.37562854 7.28965176 -9.70766393 8.62689293 -11 10 C-11 10.66 -11 11.32 -11 12 C-11.66 12 -12.32 12 -13 12 C-12.67 12.99 -12.34 13.98 -12 15 C-12.763125 15.226875 -13.52625 15.45375 -14.3125 15.6875 C-19.81234668 18.37347163 -21.06485975 24.5631774 -23 30 C-24.38117321 25.85648036 -22.97426153 24.08807749 -21.171875 20.2734375 C-19.65549376 17.33165789 -17.95735502 14.66912048 -16 12 C-14.9171875 10.515 -14.9171875 10.515 -13.8125 9 C-10.66719396 5.28460725 -5.05580698 0 0 0 Z " fill="#0C479C" transform="translate(126,187)"/>
<path d="M0 0 C1.65 0.33 3.3 0.66 5 1 C5 7.27 5 13.54 5 20 C-0.61 19.67 -6.22 19.34 -12 19 C-11.505 17.515 -11.505 17.515 -11 16 C-8.23735711 15.40267181 -5.83967231 15 -3 15 C-2.34 13.35 -1.68 11.7 -1 10 C-2.32 9.34 -3.64 8.68 -5 8 C-4.34 8 -3.68 8 -3 8 C-3 7.34 -3 6.68 -3 6 C-2.34 5.67 -1.68 5.34 -1 5 C-0.34444881 2.47266765 -0.34444881 2.47266765 0 0 Z " fill="#0349AB" transform="translate(284,270)"/>
<path d="M0 0 C1.33998047 0.06960937 1.33998047 0.06960937 2.70703125 0.140625 C3.60808594 0.17671875 4.50914062 0.2128125 5.4375 0.25 C6.46810547 0.31960937 6.46810547 0.31960937 7.51953125 0.390625 C5.66111968 4.33867907 3.45720604 7.16634779 0.51953125 10.390625 C-0.47046875 10.720625 -1.46046875 11.050625 -2.48046875 11.390625 C-2.17109375 12.15375 -1.86171875 12.916875 -1.54296875 13.703125 C-0.80153282 15.57852177 -0.11818658 17.47747152 0.51953125 19.390625 C-1.23046875 20.140625 -1.23046875 20.140625 -3.48046875 20.390625 C-5.73046875 18.453125 -5.73046875 18.453125 -7.48046875 16.390625 C-7.15046875 15.400625 -6.82046875 14.410625 -6.48046875 13.390625 C-6.81046875 12.400625 -7.14046875 11.410625 -7.48046875 10.390625 C-5.02977928 0.79209122 -5.02977928 0.79209122 0 0 Z " fill="#0348AD" transform="translate(256.48046875,218.609375)"/>
<path d="M0 0 C2.97 0 5.94 0 9 0 C9.8680908 1.91040052 10.71901783 3.82860737 11.5625 5.75 C12.03816406 6.81734375 12.51382812 7.8846875 13.00390625 8.984375 C13.9946154 11.98369837 14.16161779 13.13421241 13 16 C12.01 15.34 11.02 14.68 10 14 C10 12.68 10 11.36 10 10 C9.01 10.66 8.02 11.32 7 12 C7.350625 12.9075 7.70125 13.815 8.0625 14.75 C9.00170571 18.00591313 8.95514676 18.92749994 8 22 C6.66108439 18.71057634 5.32982297 15.41810891 4 12.125 C3.6184375 11.18785156 3.236875 10.25070312 2.84375 9.28515625 C2.4828125 8.38925781 2.121875 7.49335938 1.75 6.5703125 C1.41484375 5.74289551 1.0796875 4.91547852 0.734375 4.06298828 C0 2 0 2 0 0 Z " fill="#0B489D" transform="translate(394,264)"/>
<path d="M0 0 C2.97 0 5.94 0 9 0 C9 11.88 9 23.76 9 36 C6.36 36 3.72 36 1 36 C1.33 33.36 1.66 30.72 2 28 C2.99 28 3.98 28 5 28 C6.77490546 26.22509454 6.23499973 23.62215098 6.31640625 21.21484375 C6.35830078 20.04501953 6.40019531 18.87519531 6.44335938 17.66992188 C6.50233398 15.82237305 6.50233398 15.82237305 6.5625 13.9375 C6.62727539 12.08415039 6.62727539 12.08415039 6.69335938 10.19335938 C6.79984198 7.12902665 6.90185424 4.06460927 7 1 C5.02 1 3.04 1 1 1 C1 3.97 1 6.94 1 10 C0.67 10 0.34 10 0 10 C0 6.7 0 3.4 0 0 Z " fill="#0F4897" transform="translate(312,254)"/>
<path d="M0 0 C2.97 0.495 2.97 0.495 6 1 C5.071875 1.4021875 5.071875 1.4021875 4.125 1.8125 C1.7004767 2.95556848 1.7004767 2.95556848 0 6 C-0.3626117 7.92744369 -0.3626117 7.92744369 -0.4140625 10.01171875 C-0.46747803 11.03591919 -0.46747803 11.03591919 -0.52197266 12.08081055 C-0.55597168 12.94101807 -0.5899707 13.80122559 -0.625 14.6875 C-0.74875 17.430625 -0.8725 20.17375 -1 23 C4.94 23 10.88 23 17 23 C17.66 19.37 18.32 15.74 19 12 C19.66 12 20.32 12 21 12 C21.33 10.35 21.66 8.7 22 7 C22.66 7.66 23.32 8.32 24 9 C23.58427734 10.10408203 23.58427734 10.10408203 23.16015625 11.23046875 C22.79792969 12.20628906 22.43570313 13.18210937 22.0625 14.1875 C21.70285156 15.15042969 21.34320313 16.11335938 20.97265625 17.10546875 C19.82911151 20.30652364 19.82911151 20.30652364 19 25 C11.74 25 4.48 25 -3 25 C-3.061875 21.98875 -3.12375 18.9775 -3.1875 15.875 C-3.21481201 14.93769043 -3.24212402 14.00038086 -3.27026367 13.03466797 C-3.32103403 7.90850004 -2.79507725 4.47505807 0 0 Z " fill="#114893" transform="translate(150,256)"/>
<path d="M0 0 C4.29 0 8.58 0 13 0 C13 0.99 13 1.98 13 3 C12.67 2.67 12.34 2.34 12 2 C10.15108054 1.76636119 8.29511969 1.58696365 6.4375 1.4375 C5.42558594 1.35371094 4.41367188 1.26992187 3.37109375 1.18359375 C2.19740234 1.09271484 2.19740234 1.09271484 1 1 C1 3.31 1 5.62 1 8 C0.34 8 -0.32 8 -1 8 C-0.65772428 10.97065509 -0.65772428 10.97065509 0 14 C0.66 14.33 1.32 14.66 2 15 C2 17.64 2 20.28 2 23 C0.35 23.33 -1.3 23.66 -3 24 C-3 22.35 -3 20.7 -3 19 C-3.66 19 -4.32 19 -5 19 C-5.185625 20.3303125 -5.185625 20.3303125 -5.375 21.6875 C-6 25 -6 25 -7.0625 27.5 C-8.1715309 30.45741574 -8.14572167 32.86698402 -8 36 C-9.32 35.67 -10.64 35.34 -12 35 C-8.04 23.45 -4.08 11.9 0 0 Z M-3 15 C-2.34 16.32 -1.68 17.64 -1 19 C-0.67 18.01 -0.34 17.02 0 16 C-0.99 15.67 -1.98 15.34 -3 15 Z " fill="#0E4896" transform="translate(212,254)"/>
<path d="M0 0 C0 2 0 2 -1.3125 3.4375 C-3 5 -3 5 -4.6875 6.3125 C-6.62635078 8.80530815 -6.20379762 10.94303577 -6 14 C-5.34 13.67 -4.68 13.34 -4 13 C-4 12.34 -4 11.68 -4 11 C-3.34 11 -2.68 11 -2 11 C-1.5359375 9.5459375 -1.5359375 9.5459375 -1.0625 8.0625 C0 5 0 5 1 4 C3.33297433 3.95907063 5.66705225 3.95758277 8 4 C8.36213469 8.46632783 8.36213469 8.46632783 6.8125 10.75 C4.58183452 12.28838998 2.6635969 12.64005447 0 13 C0 13.66 0 14.32 0 15 C1.32 15.66 2.64 16.32 4 17 C-0.99184736 17.29363808 -3.97444744 17.07836372 -8 14 C-9.56935594 10.86128812 -9.35201103 8.46144178 -9 5 C-5.96734962 1.04070645 -5.08477731 0 0 0 Z M0 6 C0 7.32 0 8.64 0 10 C1.65 10 3.3 10 5 10 C5.66 8.68 6.32 7.36 7 6 C4.69 6 2.38 6 0 6 Z " fill="#0B479A" transform="translate(298,229)"/>
<path d="M0 0 C0.66 0.66 1.32 1.32 2 2 C1.01 2.33 0.02 2.66 -1 3 C-1 2.34 -1 1.68 -1 1 C-3.31 1 -5.62 1 -8 1 C-7.67 3.31 -7.34 5.62 -7 8 C-7.99 8.495 -7.99 8.495 -9 9 C-9.33 14.61 -9.66 20.22 -10 26 C-10.33 26 -10.66 26 -11 26 C-11 19.07 -11 12.14 -11 5 C-11.66 4.67 -12.32 4.34 -13 4 C-13 3.34 -13 2.68 -13 2 C-16.14970945 3.90662003 -16.14970945 3.90662003 -17.54589844 7.17651367 C-17.5668457 7.99869385 -17.58779297 8.82087402 -17.609375 9.66796875 C-17.64160156 10.56064453 -17.67382812 11.45332031 -17.70703125 12.37304688 C-17.72121094 13.30181641 -17.73539062 14.23058594 -17.75 15.1875 C-17.77964844 16.12787109 -17.80929687 17.06824219 -17.83984375 18.03710938 C-17.91053562 20.35815916 -17.96323165 22.67820535 -18 25 C-17.34 25.33 -16.68 25.66 -16 26 C-16.99 26 -17.98 26 -19 26 C-19 17.42 -19 8.84 -19 0 C-16.03 0 -13.06 0 -10 0 C-6.25976024 -1.24674659 -3.83399823 -0.76679965 0 0 Z " fill="#0F4795" transform="translate(373,264)"/>
<path d="M0 0 C11.22 0 22.44 0 34 0 C34 10.30769231 34 10.30769231 31 14 C28.39048764 15.30475618 26.47298715 15.11301572 23.5546875 15.09765625 C21.94013672 15.09282227 21.94013672 15.09282227 20.29296875 15.08789062 C19.16503906 15.07951172 18.03710938 15.07113281 16.875 15.0625 C15.73933594 15.05798828 14.60367188 15.05347656 13.43359375 15.04882812 C10.62234362 15.03701615 7.8111977 15.02054507 5 15 C8.06156654 13.22330777 10.24036215 12.75949182 13.765625 12.8046875 C14.65507812 12.81113281 15.54453125 12.81757813 16.4609375 12.82421875 C17.38132813 12.84097656 18.30171875 12.85773438 19.25 12.875 C20.18585938 12.88402344 21.12171875 12.89304687 22.0859375 12.90234375 C24.39088657 12.92586364 26.6953116 12.95873147 29 13 C29 12.34 29 11.68 29 11 C29.66 10.67 30.32 10.34 31 10 C31.33 7.03 31.66 4.06 32 1 C21.44 1 10.88 1 0 1 C0 0.67 0 0.34 0 0 Z " fill="#10468D" transform="translate(129,304)"/>
<path d="M0 0 C1.98 0 3.96 0 6 0 C6 5.61 6 11.22 6 17 C4.02 16.67 2.04 16.34 0 16 C-0.19389096 13.5211787 -0.38040123 11.04219069 -0.5625 8.5625 C-0.61857422 7.85544922 -0.67464844 7.14839844 -0.73242188 6.41992188 C-0.86190993 4.61572163 -0.93521608 2.80768048 -1 1 C-0.67 0.67 -0.34 0.34 0 0 Z " fill="#044AAB" transform="translate(387,273)"/>
<path d="M0 0 C3.875 0.875 3.875 0.875 5 2 C5.08651611 3.41570123 5.10704904 4.835595 5.09765625 6.25390625 C5.09515869 7.0229126 5.09266113 7.79191895 5.09008789 8.58422852 C5.08098389 9.56705811 5.07187988 10.5498877 5.0625 11.5625 C5.041875 14.676875 5.02125 17.79125 5 21 C-2.59 21 -10.18 21 -18 21 C-18.66 17.04 -19.32 13.08 -20 9 C-19.01 9.99 -18.02 10.98 -17 12 C-17 14.31 -17 16.62 -17 19 C-10.4 19 -3.8 19 3 19 C2.87625 16.23625 2.7525 13.4725 2.625 10.625 C2.59100098 9.75568848 2.55700195 8.88637695 2.52197266 7.99072266 C2.45208915 3.52456182 2.45208915 3.52456182 0 0 Z " fill="#16478F" transform="translate(140,260)"/>
<path d="M0 0 C0.92232422 0.06960938 0.92232422 0.06960938 1.86328125 0.140625 C1.86328125 1.460625 1.86328125 2.780625 1.86328125 4.140625 C-0.44671875 4.140625 -2.75671875 4.140625 -5.13671875 4.140625 C-5.13671875 5.130625 -5.13671875 6.120625 -5.13671875 7.140625 C-6.12671875 7.635625 -6.12671875 7.635625 -7.13671875 8.140625 C-7.13671875 10.780625 -7.13671875 13.420625 -7.13671875 16.140625 C-9.01171875 15.953125 -9.01171875 15.953125 -11.13671875 15.140625 C-12.3896227 12.69746229 -13.13671875 10.89537105 -13.13671875 8.140625 C-12.47671875 8.140625 -11.81671875 8.140625 -11.13671875 8.140625 C-10.98203125 7.274375 -10.98203125 7.274375 -10.82421875 6.390625 C-8.87853528 0.02293363 -6.21291977 -0.27745096 0 0 Z " fill="#024AAD" transform="translate(252.13671875,264.859375)"/>
<path d="M0 0 C0 0.99 0 1.98 0 3 C-4.22222222 6 -4.22222222 6 -7 6 C-7 7.65 -7 9.3 -7 11 C-7.99 11.33 -8.98 11.66 -10 12 C-11.32 10.68 -12.64 9.36 -14 8 C-12.92598892 5.08482708 -12.22189824 3.22189824 -10 1 C-6.68421778 -0.18420794 -3.49088913 -0.07933839 0 0 Z " fill="#0249AB" transform="translate(278,219)"/>
<path d="M0 0 C0.66 0 1.32 0 2 0 C2.66 1.65 3.32 3.3 4 5 C5.32 5 6.64 5 8 5 C8.8971875 6.36125 8.8971875 6.36125 9.8125 7.75 C12.53689437 11.79767164 14.69850962 12.81015035 19 15 C19.99 15.66 20.98 16.32 22 17 C16.25 17.125 16.25 17.125 14 16 C13.67 17.32 13.34 18.64 13 20 C0 4.25806452 0 4.25806452 0 0 Z " fill="#0F4796" transform="translate(105,246)"/>
<path d="M0 0 C2.00993705 3.01490557 2.72623341 5.2149927 3.625 8.6875 C3.88539063 9.68136719 4.14578125 10.67523438 4.4140625 11.69921875 C4.60742188 12.45847656 4.80078125 13.21773437 5 14 C1.7 14 -1.6 14 -5 14 C-5.33 12.35 -5.66 10.7 -6 9 C-5.34 9 -4.68 9 -4 9 C-4 8.01 -4 7.02 -4 6 C-3.01 6 -2.02 6 -1 6 C-0.67 4.02 -0.34 2.04 0 0 Z " fill="#064AA5" transform="translate(232,231)"/>
<path d="M0 0 C2.97 0 5.94 0 9 0 C9 6.27 9 12.54 9 19 C8.67 19 8.34 19 8 19 C8 13.39 8 7.78 8 2 C6.02 2.33 4.04 2.66 2 3 C2 13.89 2 24.78 2 36 C1.34 36 0.68 36 0 36 C0 24.12 0 12.24 0 0 Z " fill="#16478E" transform="translate(238,209)"/>
<path d="M0 0 C0.66 0 1.32 0 2 0 C3.125 2.8125 3.125 2.8125 4 6 C3.01 7.485 3.01 7.485 2 9 C2.66 9 3.32 9 4 9 C3.67 10.32 3.34 11.64 3 13 C1.68 13 0.36 13 -1 13 C-1 13.99 -1 14.98 -1 16 C-1.99 16 -2.98 16 -4 16 C-3.47606294 10.13190493 -2.23891142 5.45126259 0 0 Z " fill="#0349AF" transform="translate(207,273)"/>
<path d="M0 0 C2.3828125 -0.29296875 2.3828125 -0.29296875 5.125 -0.1875 C6.03507812 -0.16042969 6.94515625 -0.13335937 7.8828125 -0.10546875 C8.58148438 -0.07066406 9.28015625 -0.03585938 10 0 C8.27845212 3.76488042 6.00765886 6.15063897 3 9 C2.34 7.68 1.68 6.36 1 5 C0.34 5.66 -0.32 6.32 -1 7 C-1.99 7 -2.98 7 -4 7 C-2.79618552 4.50638429 -1.54571278 2.31856917 0 0 Z " fill="#0947A3" transform="translate(254,219)"/>
<path d="M0 0 C0.66 0.33 1.32 0.66 2 1 C1.071875 2.051875 1.071875 2.051875 0.125 3.125 C-3.99630894 8.70088856 -4.75809511 15.31485242 -6 22 C-7.32 22 -8.64 22 -10 22 C-10.99 18.04 -11.98 14.08 -13 10 C-9.48283697 13.51716303 -9.45323837 15.19567333 -9 20 C-8.34 19.67 -7.68 19.34 -7 19 C-7 14.38 -7 9.76 -7 5 C-6.34 5 -5.68 5 -5 5 C-4.731875 4.360625 -4.46375 3.72125 -4.1875 3.0625 C-3 1 -3 1 0 0 Z " fill="#114893" transform="translate(153,237)"/>
<path d="M0 0 C4.29 0 8.58 0 13 0 C15.90405696 6.90965277 18.17604991 13.73183525 20 21 C19.01 21.33 18.02 21.66 17 22 C13.78137652 15.77732794 13.78137652 15.77732794 14.5625 13 C14.706875 12.34 14.85125 11.68 15 11 C14.34 10.01 13.68 9.02 13 8 C12.60986284 6.0103005 12.26797351 4.00980131 12 2 C8.04 2 4.08 2 0 2 C0 1.34 0 0.68 0 0 Z " fill="#134891" transform="translate(212,209)"/>
<path d="M0 0 C3.96 0.33 7.92 0.66 12 1 C12.33 1.99 12.66 2.98 13 4 C11.35 4.33 9.7 4.66 8 5 C8 5.66 8 6.32 8 7 C5.36 6.67 2.72 6.34 0 6 C0 4.02 0 2.04 0 0 Z " fill="#0249AB" transform="translate(242,282)"/>
<path d="M0 0 C1.67128932 2.94381488 2.27731759 5.17383394 2.4140625 8.546875 C2.45273438 9.39121094 2.49140625 10.23554688 2.53125 11.10546875 C2.57765625 12.41451172 2.57765625 12.41451172 2.625 13.75 C2.66367188 14.63816406 2.70234375 15.52632812 2.7421875 16.44140625 C2.83620873 18.6273998 2.92186143 20.81339062 3 23 C3.66 23 4.32 23 5 23 C4.67 24.98 4.34 26.96 4 29 C0.1507915 25.1507915 -0.11934274 20.15507459 -0.1953125 14.94140625 C-0.18217643 13.14833244 -0.15855868 11.35530787 -0.125 9.5625 C-0.11597656 8.64017578 -0.10695313 7.71785156 -0.09765625 6.76757812 C-0.0742766 4.51144191 -0.04150916 2.25586316 0 0 Z " fill="#124790" transform="translate(101,217)"/>
<path d="M0 0 C1.5778125 0.1546875 1.5778125 0.1546875 3.1875 0.3125 C2.1044419 2.4786162 0.89291306 3.60708694 -0.8125 5.3125 C-1.555 6.3953125 -1.555 6.3953125 -2.3125 7.5 C-3.055 8.3971875 -3.055 8.3971875 -3.8125 9.3125 C-4.8025 9.3125 -5.7925 9.3125 -6.8125 9.3125 C-7.4725 7.9925 -8.1325 6.6725 -8.8125 5.3125 C-5.88314862 1.76177106 -4.6956049 0.38488565 0 0 Z " fill="#0249AE" transform="translate(124.8125,240.6875)"/>
<path d="M0 0 C0.99 0 1.98 0 3 0 C3.66 2.64 4.32 5.28 5 8 C1.7 8 -1.6 8 -5 8 C-5.33 6.02 -5.66 4.04 -6 2 C-4 3 -4 3 -1 5 C-0.67 3.35 -0.34 1.7 0 0 Z " fill="#0C479E" transform="translate(232,282)"/>
<path d="M0 0 C5.34673609 3.32364676 6.47549821 7.19945661 8 13 C4.00499382 11.6302836 1.19990508 9.74277578 -2 7 C-1.01 7 -0.02 7 1 7 C0.67 4.69 0.34 2.38 0 0 Z " fill="#0C4494" transform="translate(133,243)"/>
<path d="M0 0 C0.66 0.33 1.32 0.66 2 1 C2 1.66 2 2.32 2 3 C3.65 3 5.3 3 7 3 C3.9341458 6.35784032 1.79855877 6.94763549 -2.8125 7.25 C-6.81527043 7.22040465 -9.54750249 6.0714985 -13 4 C-11.0625 3.4375 -11.0625 3.4375 -9 3 C-8.67 3.33 -8.34 3.66 -8 4 C-5.67182036 4.36760731 -3.3381615 4.70241581 -1 5 C-0.67 3.35 -0.34 1.7 0 0 Z " fill="#0D4593" transform="translate(341,284)"/>
<path d="M0 0 C0 0.66 0 1.32 0 2 C-0.66 2 -1.32 2 -2 2 C-2.33 3.65 -2.66 5.3 -3 7 C-1.68 7 -0.36 7 1 7 C1.33 5.68 1.66 4.36 2 3 C2.99 3.99 3.98 4.98 5 6 C3.3790787 7.17232685 1.75313167 8.3377077 0.125 9.5 C-0.77992188 10.1496875 -1.68484375 10.799375 -2.6171875 11.46875 C-5 13 -5 13 -7 13 C-4.63888889 0 -4.63888889 0 0 0 Z " fill="#0F4A99" transform="translate(157,239)"/>
<path d="M0 0 C1.9375 0.6875 1.9375 0.6875 2.9375 2.6875 C2.977492 4.68710012 2.98096799 6.68797242 2.9375 8.6875 C1.6175 8.6875 0.2975 8.6875 -1.0625 8.6875 C-1.0625 7.3675 -1.0625 6.0475 -1.0625 4.6875 C-2.3825 4.3575 -3.7025 4.0275 -5.0625 3.6875 C-4.7325 2.6975 -4.4025 1.7075 -4.0625 0.6875 C-2.0625 -0.3125 -2.0625 -0.3125 0 0 Z " fill="#0148AE" transform="translate(347.0625,269.3125)"/>
<path d="M0 0 C0.33 0.99 0.66 1.98 1 3 C-0.98 3.99 -0.98 3.99 -3 5 C-3 5.66 -3 6.32 -3 7 C-2.01 7.33 -1.02 7.66 0 8 C0 8.99 0 9.98 0 11 C-1.32 11 -2.64 11 -4 11 C-4.33 12.98 -4.66 14.96 -5 17 C-5.33 17 -5.66 17 -6 17 C-6.68862988 7.32092452 -6.68862988 7.32092452 -4.125 3.4375 C-2 1 -2 1 0 0 Z " fill="#094AA0" transform="translate(330,265)"/>
<path d="M0 0 C0.33 1.32 0.66 2.64 1 4 C2.65 4.33 4.3 4.66 6 5 C3.16142577 7.83857423 -0.13326348 7.90046025 -4 8 C-4.99 7.67 -5.98 7.34 -7 7 C-5.54744301 3.17053157 -3.57104439 1.87949705 0 0 Z " fill="#124893" transform="translate(159,248)"/>
<path d="M0 0 C1.32 0 2.64 0 4 0 C4.33 1.65 4.66 3.3 5 5 C3.35 5 1.7 5 0 5 C-0.33 5.66 -0.66 6.32 -1 7 C-2.65 7 -4.3 7 -6 7 C-6.33 5.35 -6.66 3.7 -7 2 C-4.69 2.33 -2.38 2.66 0 3 C0 2.01 0 1.02 0 0 Z " fill="#0249AD" transform="translate(278,238)"/>
<path d="M0 0 C5.29158974 1.40071493 7.77478044 4.85487245 11 9 C3.57142857 8 3.57142857 8 0 7 C0 4.69 0 2.38 0 0 Z " fill="#0B489D" transform="translate(169,189)"/>
<path d="M0 0 C1.65 0 3.3 0 5 0 C2.375 3.875 2.375 3.875 -1 5 C-5.95337583 5.23967948 -9.48141403 5.25929298 -14 3 C-12.68 2.34 -11.36 1.68 -10 1 C-10 1.66 -10 2.32 -10 3 C-8.68 3 -7.36 3 -6 3 C-6 2.34 -6 1.68 -6 1 C-3.69 1.66 -1.38 2.32 1 3 C0.67 2.01 0.34 1.02 0 0 Z " fill="#0F4693" transform="translate(256,286)"/>
<path d="M0 0 C1.0209375 0.495 1.0209375 0.495 2.0625 1 C0.0825 1.99 0.0825 1.99 -1.9375 3 C-2.2675 2.34 -2.5975 1.68 -2.9375 1 C-4.05125 1.2784375 -4.05125 1.2784375 -5.1875 1.5625 C-7.88740963 1.99203108 -9.38381077 1.85122974 -11.9375 1 C-12.2675 1.99 -12.5975 2.98 -12.9375 4 C-13.9275 4.33 -14.9175 4.66 -15.9375 5 C-17.60460346 6.49985609 -17.60460346 6.49985609 -18.9375 8 C-17.98305011 4.18220043 -16.99751529 3.0435405 -13.75 0.6875 C-9.06577916 -1.7179107 -4.97278198 -1.69286195 0 0 Z " fill="#114A91" transform="translate(256.9375,264)"/>
<path d="M0 0 C3 1.4375 3 1.4375 5 3 C5 3.33 5 3.66 5 4 C3.35 4 1.7 4 0 4 C0 5.65 0 7.3 0 9 C-1.98 8.34 -3.96 7.68 -6 7 C-4.625 5.5 -4.625 5.5 -3 4 C-2.34 4 -1.68 4 -1 4 C-1 3.01 -1 2.02 -1 1 C-4.3 1.33 -7.6 1.66 -11 2 C-7.30041123 -0.46639251 -4.29267302 -0.56790227 0 0 Z " fill="#104794" transform="translate(279,218)"/>
<path d="M0 0 C3.63 0.33 7.26 0.66 11 1 C11.33 2.32 11.66 3.64 12 5 C7.45194365 5.17835515 4.1205746 4.99785435 0 3 C0 2.01 0 1.02 0 0 Z " fill="#024AAD" transform="translate(328,284)"/>
<path d="M0 0 C2.24226443 3.36339665 3.42592747 6.76340552 4.6875 10.5625 C4.92533203 11.24763672 5.16316406 11.93277344 5.40820312 12.63867188 C5.99980093 14.40652572 6.5063209 16.20234149 7 18 C6.67 18.66 6.34 19.32 6 20 C5.34 20 4.68 20 4 20 C3.81824219 19.07316406 3.63648438 18.14632813 3.44921875 17.19140625 C3.07216797 15.39509766 3.07216797 15.39509766 2.6875 13.5625 C2.44386719 12.36753906 2.20023438 11.17257812 1.94921875 9.94140625 C1.63597656 8.97074219 1.32273438 8.00007813 1 7 C0.01 6.67 -0.98 6.34 -2 6 C-1.34 4.02 -0.68 2.04 0 0 Z " fill="#114999" transform="translate(227,261)"/>
<path d="M0 0 C0.33 0.99 0.66 1.98 1 3 C1.99 3.33 2.98 3.66 4 4 C5.3125 5.8125 5.3125 5.8125 6 8 C5.125 10.25 5.125 10.25 4 12 C3.01 11.67 2.02 11.34 1 11 C-0.20272819 8.59454362 -0.10071472 7.05003047 -0.0625 4.375 C-0.05347656 3.55773437 -0.04445312 2.74046875 -0.03515625 1.8984375 C-0.02355469 1.27195312 -0.01195312 0.64546875 0 0 Z " fill="#0D4B9F" transform="translate(129,306)"/>
<path d="M0 0 C2.00993705 3.01490557 2.72623341 5.2149927 3.625 8.6875 C3.88539063 9.68136719 4.14578125 10.67523438 4.4140625 11.69921875 C4.60742188 12.45847656 4.80078125 13.21773437 5 14 C3.35 14 1.7 14 0 14 C0 9.38 0 4.76 0 0 Z " fill="#0A4999" transform="translate(232,231)"/>
<path d="M0 0 C0.99 0.33 1.98 0.66 3 1 C4.1875 3.5625 4.1875 3.5625 5 6 C3 8 3 8 -0.0390625 8.1953125 C-1.22242188 8.17210937 -2.40578125 8.14890625 -3.625 8.125 C-4.81351563 8.10695313 -6.00203125 8.08890625 -7.2265625 8.0703125 C-8.14179688 8.04710937 -9.05703125 8.02390625 -10 8 C-10 7.67 -10 7.34 -10 7 C-6.04 7 -2.08 7 2 7 C1.34 5.68 0.68 4.36 0 3 C0 2.01 0 1.02 0 0 Z " fill="#094FB3" transform="translate(222,275)"/>
<path d="M0 0 C0.33 0.66 0.66 1.32 1 2 C1.99 2.33 2.98 2.66 4 3 C3.01 3.495 3.01 3.495 2 4 C1.67 4.99 1.34 5.98 1 7 C0.01 6.34 -0.98 5.68 -2 5 C-5.14221967 5.31506627 -5.14221967 5.31506627 -8 6 C-7.67 4.68 -7.34 3.36 -7 2 C-6.21625 2.04125 -5.4325 2.0825 -4.625 2.125 C-1.83883881 2.28728734 -1.83883881 2.28728734 0 0 Z " fill="#0B469E" transform="translate(341,266)"/>
<path d="M0 0 C2.64 0 5.28 0 8 0 C8.66 1.98 9.32 3.96 10 6 C9.29875 5.71125 8.5975 5.4225 7.875 5.125 C4.94547497 3.97866412 1.99078347 2.97374346 -1 2 C-0.67 1.34 -0.34 0.68 0 0 Z " fill="#0D4899" transform="translate(126,236)"/>
<path d="M0 0 C0.66 0.33 1.32 0.66 2 1 C-0.49564784 3.73332858 -2.36200362 4.87240246 -6.15625 5.16796875 C-7.31640625 5.17763672 -7.31640625 5.17763672 -8.5 5.1875 C-9.66015625 5.20876953 -9.66015625 5.20876953 -10.84375 5.23046875 C-13 5 -13 5 -16 3 C-13.03 3.33 -10.06 3.66 -7 4 C-6.67 3.01 -6.34 2.02 -6 1 C-4.7934375 1.0309375 -4.7934375 1.0309375 -3.5625 1.0625 C-1.06645115 1.29633621 -1.06645115 1.29633621 0 0 Z " fill="#0F4894" transform="translate(284,241)"/>
<path d="M0 0 C1.5625 1.75 1.5625 1.75 3 4 C2.6875 6.25 2.6875 6.25 2 8 C0.35 8.33 -1.3 8.66 -3 9 C-2.44271087 5.65626525 -1.64826111 2.96687001 0 0 Z " fill="#024AAE" transform="translate(168,238)"/>
<path d="M0 0 C0.66 0 1.32 0 2 0 C2.33 0.99 2.66 1.98 3 3 C4.98 3 6.96 3 9 3 C9 3.66 9 4.32 9 5 C3.62694301 5.96891192 3.62694301 5.96891192 1 6 C-1 4.5625 -1 4.5625 -2 3 C-1.34 2.01 -0.68 1.02 0 0 Z " fill="#064499" transform="translate(272,280)"/>
<path d="M0 0 C-0.33 1.98 -0.66 3.96 -1 6 C-2.65 6.33 -4.3 6.66 -6 7 C-6.1875 4.625 -6.1875 4.625 -6 2 C-3 0 -3 0 0 0 Z " fill="#024AB2" transform="translate(215,220)"/>
<path d="M0 0 C1.12737713 3.38213139 1.06292002 4.64771379 0 8 C-2.0625 10.3125 -2.0625 10.3125 -4 12 C-4.66 11.67 -5.32 11.34 -6 11 C-6 9.35 -6 7.7 -6 6 C-5.34 6.66 -4.68 7.32 -4 8 C-2.68 5.36 -1.36 2.72 0 0 Z " fill="#114C9B" transform="translate(118,207)"/>
<path d="M0 0 C3.65316671 1.24976756 4.78065836 1.67098753 7 5 C4.03 5 1.06 5 -2 5 C-1.34 3.35 -0.68 1.7 0 0 Z " fill="#074AA4" transform="translate(258,240)"/>
<path d="M0 0 C1.32 0 2.64 0 4 0 C4.33 1.98 4.66 3.96 5 6 C2.03 5.505 2.03 5.505 -1 5 C-0.67 3.35 -0.34 1.7 0 0 Z " fill="#0145B0" transform="translate(265,237)"/>
<path d="M0 0 C3.71134205 3.1994328 5.42930118 6.3705719 7 11 C6.6875 13.4375 6.6875 13.4375 6 15 C6 14.01 6 13.02 6 12 C5.34 12 4.68 12 4 12 C4 10.35 4 8.7 4 7 C3.34 7 2.68 7 2 7 C1.34 4.69 0.68 2.38 0 0 Z " fill="#144795" transform="translate(182,201)"/>
<path d="M0 0 C0.99 0 1.98 0 3 0 C3.66 0.99 4.32 1.98 5 3 C7.58380177 3.25030977 7.58380177 3.25030977 10 3 C9.67 3.99 9.34 4.98 9 6 C6.03 5.01 3.06 4.02 0 3 C0 2.01 0 1.02 0 0 Z " fill="#0245AF" transform="translate(127,254)"/>
<path d="M0 0 C2.97 0.495 2.97 0.495 6 1 C5.34099246 4.07536854 4.46132217 6.07735566 3 9 C2.01 6.03 1.02 3.06 0 0 Z " fill="#0E4AA0" transform="translate(218,218)"/>
<path d="M0 0 C0.66 0 1.32 0 2 0 C1.34 1.98 0.68 3.96 0 6 C-1.98 6 -3.96 6 -6 6 C-5.34 5.67 -4.68 5.34 -4 5 C-4 4.01 -4 3.02 -4 2 C-2.68 2 -1.36 2 0 2 C0 1.34 0 0.68 0 0 Z " fill="#0A4899" transform="translate(210,284)"/>
<path d="M0 0 C2.31 0 4.62 0 7 0 C6.67 1.32 6.34 2.64 6 4 C4.35 4 2.7 4 1 4 C0.67 2.68 0.34 1.36 0 0 Z " fill="#0448AD" transform="translate(342,283)"/>
<path d="M0 0 C0 3 0 3 -2 6 C-4.31 5.34 -6.62 4.68 -9 4 C-6.3144406 1.3144406 -3.62378672 0.93950026 0 0 Z " fill="#0D489E" transform="translate(165,255)"/>
<path d="M0 0 C0.99 0 1.98 0 3 0 C3.33 2.31 3.66 4.62 4 7 C2.68 6.67 1.36 6.34 0 6 C0 4 0 2 0 0 Z " fill="#0346A8" transform="translate(130,243)"/>
<path d="M0 0 C0.33 0 0.66 0 1 0 C1 2.97 1 5.94 1 9 C-0.32 8.34 -1.64 7.68 -3 7 C-2.67 5.35 -2.34 3.7 -2 2 C-1.34 2 -0.68 2 0 2 C0 1.34 0 0.68 0 0 Z " fill="#0B4592" transform="translate(246,236)"/>
<path d="M0 0 C0 0.66 0 1.32 0 2 C-0.99 2 -1.98 2 -3 2 C-3.20625 2.61875 -3.4125 3.2375 -3.625 3.875 C-5.54775888 6.84653645 -7.66594527 7.13024659 -11 8 C-9.83630874 4.50892621 -9.11026462 4.14777237 -6.0625 2.3125 C-5.35222656 1.87550781 -4.64195313 1.43851563 -3.91015625 0.98828125 C-2 0 -2 0 0 0 Z " fill="#164A99" transform="translate(132,197)"/>
<path d="M0 0 C2.31 0 4.62 0 7 0 C6.34 1.32 5.68 2.64 5 4 C3.02 4 1.04 4 -1 4 C-0.67 2.68 -0.34 1.36 0 0 Z " fill="#0549AF" transform="translate(299,219)"/>
<path d="M0 0 C2 2 2 2 2 5 C0.72125 5.061875 -0.5575 5.12375 -1.875 5.1875 C-2.59429687 5.22230469 -3.31359375 5.25710938 -4.0546875 5.29296875 C-4.69664062 5.19628906 -5.33859375 5.09960938 -6 5 C-6.66 4.01 -7.32 3.02 -8 2 C-5.36 2.33 -2.72 2.66 0 3 C0 2.01 0 1.02 0 0 Z " fill="#17488B" transform="translate(262,270)"/>
<path d="M0 0 C0 0.99 0 1.98 0 3 C0.66868314 6.11332248 0.66868314 6.11332248 3.0625 7.1875 C3.701875 7.455625 4.34125 7.72375 5 8 C2.36 8 -0.28 8 -3 8 C-2.25 2.25 -2.25 2.25 0 0 Z " fill="#144489" transform="translate(270,265)"/>
<path d="M0 0 C0.66 0.33 1.32 0.66 2 1 C1.525625 1.886875 1.05125 2.77375 0.5625 3.6875 C-0.79737149 6.57042756 -1.54060386 8.87610623 -2 12 C-2.33 12 -2.66 12 -3 12 C-3.08131463 10.56344146 -3.13933559 9.1255517 -3.1875 7.6875 C-3.22230469 6.88699219 -3.25710938 6.08648437 -3.29296875 5.26171875 C-2.93801608 2.52148416 -2.10633718 1.70828921 0 0 Z " fill="#0F4993" transform="translate(269,275)"/>
<path d="M0 0 C0 0.33 0 0.66 0 1 C-1.7015625 1.433125 -1.7015625 1.433125 -3.4375 1.875 C-4.613125 2.24625 -5.78875 2.6175 -7 3 C-7.33 3.66 -7.66 4.32 -8 5 C-9.65 4.67 -11.3 4.34 -13 4 C-9.09650503 -0.27525639 -5.61326496 -0.10591066 0 0 Z " fill="#144A99" transform="translate(170,235)"/>
<path d="M0 0 C3.93673644 1.31224548 6.22719294 2.91910327 9 6 C7.68 6.33 6.36 6.66 5 7 C5.33 6.01 5.66 5.02 6 4 C4.68 4 3.36 4 2 4 C2 3.34 2 2.68 2 2 C1.34 2 0.68 2 0 2 C0 1.34 0 0.68 0 0 Z " fill="#11438F" transform="translate(131,253)"/>
<path d="M0 0 C-0.66 1.32 -1.32 2.64 -2 4 C-3.9375 3.625 -3.9375 3.625 -6 3 C-6.33 2.34 -6.66 1.68 -7 1 C-3.375 -1.125 -3.375 -1.125 0 0 Z " fill="#08479C" transform="translate(212,241)"/>
<path d="M0 0 C1.65 0 3.3 0 5 0 C5.33 0.99 5.66 1.98 6 3 C2.86650268 4.04449911 2.01031744 3.93423645 -1 3 C-0.67 2.01 -0.34 1.02 0 0 Z " fill="#0249AD" transform="translate(279,222)"/>
<path d="M0 0 C1.65 0 3.3 0 5 0 C5.66 1.32 6.32 2.64 7 4 C5.68 3.34 4.36 2.68 3 2 C2.67 2.66 2.34 3.32 2 4 C1.01 3.67 0.02 3.34 -1 3 C-0.67 2.01 -0.34 1.02 0 0 Z " fill="#0C48A3" transform="translate(255,266)"/>
<path d="M0 0 C-3.3 1.32 -6.6 2.64 -10 4 C-10.66 3.34 -11.32 2.68 -12 2 C-10.75579353 1.4654744 -9.50429064 0.94791389 -8.25 0.4375 C-7.55390625 0.14746094 -6.8578125 -0.14257812 -6.140625 -0.44140625 C-4 -1 -4 -1 0 0 Z " fill="#104B95" transform="translate(138,184)"/>
<path d="M0 0 C0.33 0.99 0.66 1.98 1 3 C-0.98 3.99 -0.98 3.99 -3 5 C-3 5.66 -3 6.32 -3 7 C-3.66 7 -4.32 7 -5 7 C-3.75023244 3.34683329 -3.32901247 2.21934164 0 0 Z " fill="#104497" transform="translate(330,265)"/>
<path d="M0 0 C2.95183101 2.95183101 3.08663988 5.95511947 4 10 C3.01 9.67 2.02 9.34 1 9 C-0.4783226 6.04335481 -0.06032783 3.25770263 0 0 Z " fill="#14488C" transform="translate(289,234)"/>
<path d="M0 0 C0.66 0 1.32 0 2 0 C2 0.99 2 1.98 2 3 C1.34 3 0.68 3 0 3 C-0.33 4.98 -0.66 6.96 -1 9 C-1.66 9 -2.32 9 -3 9 C-2.01 6.03 -1.02 3.06 0 0 Z " fill="#0E4999" transform="translate(211,259)"/>
<path d="M0 0 C1.32 0.33 2.64 0.66 4 1 C3.01 1.33 2.02 1.66 1 2 C0.67 3.65 0.34 5.3 0 7 C-1.32 7 -2.64 7 -4 7 C-2.79618552 4.50638429 -1.54571278 2.31856917 0 0 Z " fill="#154892" transform="translate(254,219)"/>
<path d="M0 0 C1.9375 0.375 1.9375 0.375 4 1 C4.33 1.66 4.66 2.32 5 3 C3.35 3.33 1.7 3.66 0 4 C0 2.68 0 1.36 0 0 Z " fill="#0649A6" transform="translate(155,252)"/>
</svg>
